<?xml version="1.0" standalone="no"?>
<!DOCTYPE svg PUBLIC "-//W3C//DTD SVG 20010904//EN"
 "http://www.w3.org/TR/2001/REC-SVG-20010904/DTD/svg10.dtd">
<svg version="1.0" xmlns="http://www.w3.org/2000/svg"
 width="500.000000pt" height="500.000000pt" viewBox="0 0 500.000000 500.000000"
 preserveAspectRatio="xMidYMid meet">

<g transform="translate(0.000000,500.000000) scale(0.100000,-0.100000)"
fill="#000000" stroke="none">
<path d="M1240 3473 c-12 -71 -25 -134 -27 -140 -4 -9 6 -13 30 -13 l35 0 13
85 c7 47 15 88 19 90 4 2 18 -35 31 -83 23 -83 26 -87 54 -90 30 -3 31 -3 55
88 13 49 27 90 31 90 3 0 12 -40 19 -90 l13 -90 35 0 c30 0 34 2 29 23 -3 12
-16 75 -28 140 l-23 117 -36 0 -37 0 -22 -82 c-13 -46 -26 -89 -30 -96 -5 -8
-19 24 -36 82 l-28 96 -37 0 -37 0 -23 -127z"/>
<path d="M1670 3460 l0 -140 30 0 30 0 0 140 0 140 -30 0 -30 0 0 -140z"/>
<path d="M1893 3498 c-23 -57 -48 -120 -57 -140 l-16 -38 33 0 c27 0 35 5 44
30 11 28 15 30 63 30 48 0 52 -2 63 -30 9 -25 17 -30 43 -30 l33 0 -57 140
c-53 129 -59 140 -83 140 -23 0 -29 -9 -66 -102z m83 -13 c20 -48 18 -55 -16
-55 -16 0 -30 3 -30 6 0 12 23 84 27 84 2 0 11 -16 19 -35z"/>
<path d="M2180 3523 c1 -154 30 -203 121 -203 42 0 55 5 80 29 29 29 29 31 29
140 l0 111 -30 0 -30 0 0 -99 c0 -109 -8 -125 -57 -119 -39 4 -53 39 -53 136
l0 82 -30 0 -30 0 0 -77z"/>
<path d="M2590 3503 c0 -54 -4 -103 -8 -109 -12 -18 -42 -24 -63 -14 -17 10
-19 7 -19 -25 0 -35 0 -35 44 -35 33 0 52 6 73 24 27 24 28 27 31 140 l4 116
-31 0 -31 0 0 -97z"/>
<path d="M2750 3506 c0 -110 12 -151 51 -171 45 -24 113 -19 146 9 27 24 28
27 31 140 l4 116 -31 0 -31 0 0 -98 c0 -109 -6 -122 -57 -122 -44 0 -53 21
-53 129 l0 91 -30 0 -30 0 0 -94z"/>
<path d="M3090 3460 l0 -140 53 0 c99 0 162 54 162 140 0 86 -63 140 -162 140
l-53 0 0 -140z m119 70 c10 -5 24 -23 31 -40 22 -52 -14 -110 -69 -110 -19 0
-21 6 -21 80 0 74 2 80 21 80 11 0 28 -4 38 -10z"/>
<path d="M3463 3498 c-23 -57 -48 -120 -57 -140 l-16 -38 33 0 c27 0 35 5 44
30 10 28 15 30 63 30 48 0 52 -2 61 -30 9 -25 16 -30 44 -30 l34 0 -57 140
c-53 129 -59 140 -83 140 -23 0 -29 -9 -66 -102z m83 -13 c20 -48 18 -55 -16
-55 -16 0 -30 3 -30 6 0 12 23 84 27 84 2 0 11 -16 19 -35z"/>
<path d="M2078 3011 c-54 -34 -101 -98 -131 -179 -17 -47 -21 -79 -21 -187 0
-111 3 -138 22 -185 48 -120 121 -174 239 -174 62 0 80 4 139 34 114 59 161
142 151 270 -6 83 -27 144 -85 249 -102 182 -207 240 -314 172z m141 -26 c44
-22 105 -97 149 -183 130 -251 83 -419 -132 -473 -72 -18 -130 -5 -181 42
-126 117 -133 393 -14 560 45 63 118 86 178 54z"/>
<path d="M2749 3020 c-98 -52 -214 -247 -239 -402 -21 -137 29 -238 148 -297
195 -98 369 6 402 240 22 154 -20 314 -108 411 -62 69 -133 85 -203 48z m138
-39 c40 -25 88 -95 115 -169 29 -77 31 -243 5 -319 -55 -158 -172 -209 -326
-143 -156 68 -183 225 -74 437 96 188 186 250 280 194z"/>
<path d="M1685 2491 c-114 -50 -146 -256 -66 -426 72 -154 191 -219 307 -166
143 65 194 208 122 345 -39 72 -145 180 -215 218 -55 30 -118 42 -148 29z
m114 -53 c24 -12 78 -53 119 -92 145 -138 169 -257 70 -353 -61 -58 -101 -76
-159 -71 -58 6 -104 38 -148 105 -73 110 -92 280 -41 370 37 66 83 78 159 41z"/>
<path d="M3207 2486 c-175 -64 -333 -283 -298 -412 34 -126 180 -218 293 -185
130 39 235 253 208 425 -22 145 -99 210 -203 172z m118 -59 c58 -58 70 -169
30 -294 -28 -89 -82 -166 -135 -195 -73 -40 -193 1 -248 84 -39 60 -38 143 2
213 36 61 134 157 201 196 68 39 108 38 150 -4z"/>
<path d="M2449 2290 c-111 -19 -283 -185 -449 -433 -84 -127 -122 -219 -128
-309 -4 -70 -2 -83 23 -134 41 -83 125 -138 265 -171 51 -12 90 -14 185 -8 66
5 152 6 190 4 39 -2 124 -4 190 -4 102 1 129 4 179 24 84 33 150 101 172 177
27 94 3 264 -38 264 -22 0 -22 -2 -3 -64 21 -67 19 -162 -4 -211 -40 -89 -161
-157 -276 -157 -401 2 -603 9 -641 24 -165 64 -231 155 -206 286 33 168 301
536 466 640 74 47 122 51 198 14 115 -54 215 -154 335 -335 58 -89 83 -110 83
-72 0 32 -147 234 -229 315 -123 120 -217 166 -312 150z"/>
<path d="M2985 1780 c-7 -12 20 -60 34 -60 16 0 19 13 9 41 -10 29 -31 38 -43
19z"/>
</g>
</svg>
